<?xml version="1.0" encoding="UTF-8" standalone="no"?>
<!-- Created with Inkscape (http://www.inkscape.org/) -->

<svg
   xmlns:dc="http://purl.org/dc/elements/1.1/"
   xmlns:cc="http://creativecommons.org/ns#"
   xmlns:rdf="http://www.w3.org/1999/02/22-rdf-syntax-ns#"
   xmlns:svg="http://www.w3.org/2000/svg"
   xmlns="http://www.w3.org/2000/svg"
   xmlns:sodipodi="http://sodipodi.sourceforge.net/DTD/sodipodi-0.dtd"
   xmlns:inkscape="http://www.inkscape.org/namespaces/inkscape"
   width="116.24273mm"
   height="22.428942mm"
   viewBox="0 0 411.88369 79.472628"
   id="svg2"
   version="1.1"
   inkscape:version="0.91 r13725"
   sodipodi:docname="openbudget-logo.svg">
  <defs
     id="defs4" />
  <sodipodi:namedview
     id="base"
     pagecolor="#6c3ad2"
     bordercolor="#666666"
     borderopacity="1.0"
     inkscape:pageopacity="0"
     inkscape:pageshadow="2"
     inkscape:zoom="0.98994949"
     inkscape:cx="-65.357554"
     inkscape:cy="-230.44763"
     inkscape:document-units="px"
     inkscape:current-layer="g4217"
     showgrid="false"
     fit-margin-top="0"
     fit-margin-left="0"
     fit-margin-right="0"
     fit-margin-bottom="0"
     inkscape:window-width="1920"
     inkscape:window-height="1056"
     inkscape:window-x="0"
     inkscape:window-y="24"
     inkscape:window-maximized="1" />
  <metadata
     id="metadata7">
    <rdf:RDF>
      <cc:Work
         rdf:about="">
        <dc:format>image/svg+xml</dc:format>
        <dc:type
           rdf:resource="http://purl.org/dc/dcmitype/StillImage" />
        <dc:title></dc:title>
      </cc:Work>
    </rdf:RDF>
  </metadata>
  <g
     inkscape:label="Calque 1"
     inkscape:groupmode="layer"
     id="layer1"
     transform="translate(-154.77244,-236.91161)">
    <g
       transform="matrix(1.25,0,0,-1.25,-427.37037,478.52709)"
       inkscape:label="ink_ext_XXXXXX"
       id="g4215">
      <g
         transform="scale(0.1,0.1)"
         id="g4217">
        <g
           transform="matrix(10,0,0,10,4657.1421,1297.1428)"
           inkscape:label="ink_ext_XXXXXX"
           id="g4304"
           style="fill:#ffffff">
          <g
             transform="scale(0.1,0.1)"
             id="g4306"
             style="fill:#ffffff">
            <path
               inkscape:connector-curvature="0"
               id="path4308"
               style="fill:#ffffff;fill-opacity:1;fill-rule:nonzero;stroke:none"
               d="M 441.809,312.137 304.32,174.648 166.836,312.137 l -39.664,39.664 -47.6173,47.613 33.9453,11.059 47.617,-47.614 39.664,-39.668 83.496,-83.496 c 11.024,-11.023 29.063,-11.023 40.086,0 l 83.5,83.496 39.664,39.668 47.614,47.614 33.945,-11.059 -47.613,-47.613 -39.664,-39.664 z M 529.086,283.699 304.32,58.9336 79.5547,283.699 113.5,294.758 284.277,123.984 c 2.758,-2.757 5.95,-4.824 9.364,-6.203 1.539,-0.621 3.129,-1.054 4.738,-1.394 0.476,-0.102 0.949,-0.164 1.43,-0.242 1.199,-0.192 2.398,-0.305 3.609,-0.344 0.301,-0.008 0.602,-0.086 0.902,-0.086 0.184,0 0.364,0.047 0.543,0.051 1.637,0.031 3.27,0.156 4.879,0.464 3.578,0.692 7.047,2.067 10.188,4.133 1.57,1.035 3.058,2.242 4.433,3.621 l 170.778,170.774 33.945,-11.059 z M 79.4805,537.543 186.793,576.309 294.137,519.563 420.891,452.555 404.578,439.977 347.027,395.598 305.84,363.836 l -42.238,32.41 -57.747,44.317 -48.105,36.914 -78.2695,60.066 z m 299.8675,54.695 151.754,-54.695 -67.266,-51.871 -158.609,72.558 74.121,34.008 z m 215.785,-161.754 -60.324,19.653 67.234,67.234 c 11.023,11.027 7.914,23.996 -6.91,28.828 l -263.86,85.961 c -14.824,4.828 -39.082,4.828 -53.906,0 L 13.5078,546.199 C -1.31641,541.367 -4.42188,528.398 6.60156,517.371 L 73.8359,450.137 13.5078,430.484 C 11.6563,429.879 9.98438,429.148 8.50391,428.313 5.53906,426.633 3.32813,424.527 1.90234,422.148 1.19141,420.957 0.675781,419.699 0.363281,418.395 -0.890625,413.172 1.08984,407.172 6.60156,401.66 L 73.8359,334.422 13.5078,314.77 C 11.6563,314.168 9.98438,313.434 8.50391,312.598 5.53906,310.922 3.32813,308.813 1.90234,306.434 1.19141,305.242 0.675781,303.984 0.363281,302.68 -0.890625,297.457 1.08984,291.457 6.60156,285.945 L 284.277,8.26953 c 2.758,-2.75781 5.95,-4.82422 9.364,-6.20312 1.539,-0.6211 3.129,-1.05469 4.738,-1.394535 0.476,-0.101562 0.949,-0.164062 1.43,-0.242187 C 301.008,0.238281 302.207,0.125 303.418,0.0859375 303.719,0.0742188 304.02,0 304.32,0 c 0.184,0 0.364,0.046875 0.543,0.0507813 1.637,0.03125 3.27,0.1562497 4.879,0.4648437 3.578,0.691405 7.047,2.070315 10.188,4.136715 1.57,1.03125 3.058,2.23829 4.433,3.61719 L 602.043,285.945 c 11.023,11.024 7.914,23.996 -6.91,28.825 l -60.324,19.652 67.234,67.238 c 11.023,11.024 7.914,23.992 -6.91,28.824" />
            <path
               inkscape:connector-curvature="0"
               id="path4310"
               style="fill:#ffffff;fill-opacity:1;fill-rule:nonzero;stroke:none"
               d="m 780.063,374.547 c 0,-34.188 6.906,-60.106 20.703,-77.774 13.797,-17.664 34.25,-26.492 61.347,-26.492 26.973,0 47.325,8.731 61.067,26.211 13.738,17.469 20.601,43.496 20.601,78.055 0,34.062 -6.804,59.894 -20.406,77.488 -13.613,17.61 -33.906,26.41 -60.883,26.41 -27.226,0 -47.762,-8.8 -61.629,-26.41 -13.867,-17.594 -20.8,-43.426 -20.8,-77.488 z m 211.96,0 c 0,-45.203 -11.296,-80.344 -33.894,-105.41 -22.609,-25.067 -54.609,-37.606 -96.016,-37.606 -41.914,0 -74.101,12.442 -96.582,37.324 -22.472,24.883 -33.711,60.235 -33.711,106.075 0,45.84 11.309,81.035 33.907,105.605 22.597,24.559 54.851,36.844 96.765,36.844 41.281,0 73.188,-12.469 95.727,-37.422 22.539,-24.941 33.804,-60.078 33.804,-105.41" />
            <path
               inkscape:connector-curvature="0"
               id="path4312"
               style="fill:#ffffff;fill-opacity:1;fill-rule:nonzero;stroke:none"
               d="m 1123.2,412.73 c -17.74,0 -30.68,-5.195 -38.85,-15.574 -8.16,-10.39 -12.25,-26.972 -12.25,-49.765 l 0,-6.653 c 0,-25.578 4.06,-44.09 12.16,-55.547 8.1,-11.464 21.33,-17.195 39.69,-17.195 15.45,0 27.35,6.336 35.71,18.992 8.36,12.668 12.53,30.703 12.53,54.133 0,23.555 -4.14,41.375 -12.43,53.465 -8.3,12.09 -20.49,18.144 -36.56,18.144 z m 10.82,-181.199 c -26.59,0 -47.23,9.559 -61.92,28.68 l -2.65,0 c 1.76,-17.723 2.65,-28.484 2.65,-32.285 l 0,-86.043 -44.64,0 0,303.515 36.1,0 c 1,-3.925 3.09,-13.3 6.27,-28.117 l 2.27,0 c 13.93,21.282 34.82,31.914 62.68,31.914 26.21,0 46.63,-9.5 61.25,-28.496 14.63,-18.996 21.94,-45.644 21.94,-79.961 0,-34.304 -7.44,-61.093 -22.32,-80.332 -14.87,-19.258 -35.42,-28.875 -61.63,-28.875" />
            <path
               inkscape:connector-curvature="0"
               id="path4314"
               style="fill:#ffffff;fill-opacity:1;fill-rule:nonzero;stroke:none"
               d="m 1333.94,415.387 c -14.18,0 -25.55,-4.5 -34.09,-13.485 -8.55,-8.996 -13.65,-22.101 -15.3,-39.316 l 95.36,0 c -0.27,17.344 -4.44,30.488 -12.54,39.41 -8.11,8.93 -19.25,13.391 -33.43,13.391 z m 8.16,-183.856 c -32.66,0 -58.21,9.532 -76.63,28.582 -18.43,19.063 -27.63,45.305 -27.63,78.731 0,34.308 8.54,61.277 25.63,80.91 17.1,19.629 40.59,29.441 70.47,29.441 27.72,0 49.63,-8.425 65.71,-25.261 16.09,-16.848 24.12,-40.012 24.12,-69.512 l 0,-24.121 -139.98,0 c 0.64,-20.391 6.15,-36.067 16.53,-47.016 10.38,-10.957 25.01,-16.422 43.87,-16.422 12.42,0 23.97,1.16 34.67,3.516 10.69,2.332 22.19,6.23 34.47,11.68 l 0,-36.282 c -10.89,-5.195 -21.91,-8.867 -33.05,-11.015 -11.15,-2.149 -23.87,-3.231 -38.18,-3.231" />
            <path
               inkscape:connector-curvature="0"
               id="path4316"
               style="fill:#ffffff;fill-opacity:1;fill-rule:nonzero;stroke:none"
               d="m 1639.84,235.328 -44.83,0 0,129.16 c 0,16.203 -3.26,28.293 -9.77,36.27 -6.53,7.98 -16.88,11.972 -31.06,11.972 -18.86,0 -32.66,-5.574 -41.4,-16.718 -8.74,-11.141 -13.11,-29.813 -13.11,-56.024 l 0,-104.66 -44.64,0 0,210.07 34.95,0 6.27,-27.539 2.28,0 c 6.33,10 15.32,17.723 26.97,23.164 11.65,5.45 24.56,8.172 38.75,8.172 50.39,0 75.59,-25.644 75.59,-76.922 l 0,-136.945" />
            <path
               inkscape:connector-curvature="0"
               id="path4318"
               style="fill:#ffffff;fill-opacity:1;fill-rule:nonzero;stroke:none"
               d="m 1732.64,361.441 0,-87.937 48.24,0 c 19,0 33.33,3.641 43.02,10.926 9.69,7.273 14.53,18.769 14.53,34.472 0,14.434 -4.94,25.129 -14.81,32.102 -9.88,6.961 -24.89,10.437 -45.01,10.437 l -45.97,0 z m 0,36.844 43.68,0 c 19,0 32.86,3.012 41.59,9.028 8.74,6.015 13.11,16.238 13.11,30.671 0,13.047 -4.72,22.481 -14.14,28.301 -9.44,5.82 -24.42,8.742 -44.92,8.742 l -39.32,0 0,-76.742 z m -45.39,114.731 82.42,0 c 38.24,0 65.88,-5.578 82.91,-16.719 17.03,-11.145 25.55,-28.742 25.55,-52.805 0,-16.211 -4.18,-29.687 -12.54,-40.449 -8.36,-10.77 -20.39,-17.539 -36.08,-20.32 l 0,-1.907 c 19.49,-3.671 33.83,-10.918 43.01,-21.746 9.18,-10.824 13.77,-25.48 13.77,-43.965 0,-24.953 -8.71,-44.484 -26.11,-58.593 -17.41,-14.121 -41.63,-21.184 -72.65,-21.184 l -100.28,0 0,277.688" />
            <path
               inkscape:connector-curvature="0"
               id="path4320"
               style="fill:#ffffff;fill-opacity:1;fill-rule:nonzero;stroke:none"
               d="m 2067.99,235.328 -6.27,27.539 -2.28,0 c -6.2,-9.746 -15.03,-17.414 -26.5,-22.976 -11.45,-5.567 -24.53,-8.36 -39.22,-8.36 -25.44,0 -44.44,6.328 -56.98,18.992 -12.53,12.668 -18.8,31.848 -18.8,57.551 l 0,137.324 45.01,0 0,-129.531 c 0,-16.086 3.29,-28.144 9.89,-36.183 6.58,-8.047 16.9,-12.063 30.95,-12.063 18.74,0 32.51,5.598 41.31,16.809 8.8,11.203 13.2,29.972 13.2,56.308 l 0,104.66 44.83,0 0,-210.07 -35.14,0" />
            <path
               inkscape:connector-curvature="0"
               id="path4322"
               style="fill:#ffffff;fill-opacity:1;fill-rule:nonzero;stroke:none"
               d="m 2230.11,267.621 c 18.36,0 31.72,5.16 40.08,15.481 8.36,10.312 12.66,27.058 12.91,50.234 l 0,6.269 c 0,26.458 -4.31,45.266 -12.91,56.407 -8.61,11.144 -22.1,16.718 -40.46,16.718 -15.7,0 -27.79,-6.367 -36.28,-19.089 -8.48,-12.727 -12.72,-30.871 -12.72,-54.414 0,-23.301 4.12,-41.067 12.35,-53.282 8.22,-12.218 20.57,-18.324 37.03,-18.324 z m -11.96,-36.09 c -26.21,0 -46.66,9.5 -61.35,28.496 -14.69,18.985 -22.03,45.645 -22.03,79.961 0,34.434 7.43,61.25 22.31,80.426 14.88,19.191 35.49,28.781 61.83,28.781 27.6,0 48.62,-10.195 63.06,-30.586 l 2.27,0 c -2.16,15.071 -3.23,26.973 -3.23,35.715 l 0,76.543 44.82,0 0,-295.539 -34.94,0 -7.79,27.539 -2.09,0 c -14.31,-20.887 -35.26,-31.336 -62.86,-31.336" />
            <path
               inkscape:connector-curvature="0"
               id="path4324"
               style="fill:#ffffff;fill-opacity:1;fill-rule:nonzero;stroke:none"
               d="m 2401.73,377.398 c 0,-13.171 3.39,-23.3 10.16,-30.39 6.78,-7.09 16.49,-10.637 29.16,-10.637 25.83,0 38.74,13.801 38.74,41.41 0,13.672 -3.19,24.215 -9.59,31.621 -6.4,7.411 -16.11,11.114 -29.15,11.114 -12.92,0 -22.7,-3.672 -29.35,-11.02 -6.65,-7.34 -9.97,-18.043 -9.97,-32.098 z M 2382.55,202.66 c 0,-9.617 4.34,-17.027 13.01,-22.215 8.67,-5.195 20.86,-7.793 36.56,-7.793 24.31,0 42.42,3.489 54.32,10.45 11.9,6.964 17.85,16.211 17.85,27.726 0,9.121 -3.26,15.606 -9.77,19.473 -6.53,3.867 -18.66,5.789 -36.38,5.789 l -33.81,0 c -12.78,0 -22.95,-3.008 -30.48,-9.024 -7.54,-6.003 -11.3,-14.148 -11.3,-24.406 z m 165.05,242.738 0,-24.503 -35.9,-6.649 c 3.29,-4.433 6.02,-9.875 8.17,-16.332 2.15,-6.461 3.23,-13.297 3.23,-20.516 0,-21.652 -7.47,-38.679 -22.41,-51.093 -14.94,-12.41 -35.52,-18.614 -61.73,-18.614 -6.71,0 -12.79,0.508 -18.23,1.524 -9.63,-5.957 -14.44,-12.918 -14.44,-20.899 0,-4.804 2.25,-8.418 6.74,-10.82 4.49,-2.41 12.76,-3.613 24.79,-3.613 l 36.66,0 c 23.17,0 40.77,-4.93 52.8,-14.813 12.02,-9.875 18.04,-24.121 18.04,-42.734 0,-23.801 -9.82,-42.16 -29.44,-55.078 -19.63,-12.91 -47.99,-19.375 -85.09,-19.375 -28.62,0 -50.45,5.066 -65.52,15.195 -15.07,10.137 -22.61,24.57 -22.61,43.309 0,12.91 4.08,23.769 12.26,32.566 8.16,8.801 19.59,14.914 34.27,18.332 -5.94,2.531 -10.86,6.613 -14.71,12.246 -3.87,5.637 -5.79,11.555 -5.79,17.766 0,7.851 2.21,14.488 6.65,19.941 4.42,5.438 11.01,10.828 19.74,16.141 -10.89,4.687 -19.71,12.316 -26.49,22.891 -6.78,10.566 -10.16,22.949 -10.16,37.128 0,22.793 7.18,40.461 21.55,52.989 14.37,12.539 34.86,18.808 61.45,18.808 5.95,0 12.19,-0.418 18.7,-1.242 6.52,-0.816 11.43,-1.676 14.73,-2.555 l 72.74,0" />
            <path
               inkscape:connector-curvature="0"
               id="path4326"
               style="fill:#ffffff;fill-opacity:1;fill-rule:nonzero;stroke:none"
               d="m 2650.66,415.387 c -14.18,0 -25.55,-4.5 -34.09,-13.485 -8.55,-8.996 -13.65,-22.101 -15.3,-39.316 l 95.35,0 c -0.26,17.344 -4.43,30.488 -12.53,39.41 -8.11,8.93 -19.25,13.391 -33.43,13.391 z m 8.16,-183.856 c -32.66,0 -58.21,9.532 -76.63,28.582 -18.43,19.063 -27.64,45.305 -27.64,78.731 0,34.308 8.55,61.277 25.64,80.91 17.1,19.629 40.59,29.441 70.47,29.441 27.72,0 49.63,-8.425 65.71,-25.261 16.08,-16.848 24.12,-40.012 24.12,-69.512 l 0,-24.121 -139.98,0 c 0.64,-20.391 6.14,-36.067 16.52,-47.016 10.39,-10.957 25.01,-16.422 43.88,-16.422 12.41,0 23.97,1.16 34.67,3.516 10.69,2.332 22.19,6.23 34.47,11.68 l 0,-36.282 c -10.9,-5.195 -21.91,-8.867 -33.05,-11.015 -11.15,-2.149 -23.87,-3.231 -38.18,-3.231" />
            <path
               inkscape:connector-curvature="0"
               id="path4328"
               style="fill:#ffffff;fill-opacity:1;fill-rule:nonzero;stroke:none"
               d="m 2850,267.621 c 10.89,0 21.78,1.711 32.68,5.129 l 0,-33.621 c -4.94,-2.149 -11.31,-3.957 -19.09,-5.41 -7.79,-1.457 -15.86,-2.188 -24.22,-2.188 -42.29,0 -63.44,22.285 -63.44,66.856 l 0,113.203 -28.67,0 0,19.754 30.76,16.328 15.2,44.445 27.54,0 0,-46.719 59.83,0 0,-33.808 -59.83,0 0,-112.442 c 0,-10.761 2.69,-18.71 8.07,-23.839 5.38,-5.125 12.44,-7.688 21.17,-7.688" />
            <path
               inkscape:connector-curvature="0"
               id="path4330"
               style="fill:#ffffff;fill-opacity:1;fill-rule:nonzero;stroke:none"
               d="m 3046.32,295.16 c 0,-20.515 -7.47,-36.25 -22.41,-47.195 -14.94,-10.957 -36.34,-16.434 -64.2,-16.434 -27.98,0 -50.46,4.246 -67.42,12.723 l 0,38.555 c 24.69,-11.387 47.67,-17.09 68.94,-17.09 27.47,0 41.22,8.293 41.22,24.883 0,5.312 -1.52,9.746 -4.57,13.293 -3.03,3.543 -8.03,7.214 -15,11.015 -6.96,3.797 -16.65,8.106 -29.06,12.918 -24.18,9.367 -40.54,18.742 -49.09,28.106 -8.54,9.375 -12.82,21.523 -12.82,36.464 0,17.981 7.24,31.946 21.75,41.887 14.49,9.942 34.21,14.91 59.16,14.91 24.69,0 48.05,-5.007 70.08,-15.007 l -14.43,-33.614 c -22.67,9.364 -41.73,14.051 -57.17,14.051 -23.55,0 -35.33,-6.711 -35.33,-20.137 0,-6.582 3.07,-12.148 9.21,-16.707 6.14,-4.562 19.53,-10.832 40.18,-18.808 17.34,-6.711 29.94,-12.852 37.79,-18.418 7.85,-5.578 13.68,-12.004 17.47,-19.278 3.8,-7.285 5.7,-15.988 5.7,-26.117" />
            <path
               inkscape:connector-curvature="0"
               id="path4332"
               style="fill:#ffffff;fill-opacity:1;fill-rule:nonzero;stroke:none"
               d="m 3068.46,234.051 c -7.48,0 -12.75,5.937 -12.75,13.867 0,7.922 5.5,13.859 13.2,13.859 7.7,0 12.98,-5.722 12.98,-13.859 0,-7.93 -5.28,-13.867 -13.2,-13.867 l -0.23,0" />
            <path
               inkscape:connector-curvature="0"
               id="path4334"
               style="fill:#ffffff;fill-opacity:1;fill-rule:nonzero;stroke:none"
               d="m 3173.41,300.066 c 0.22,12.317 -5.06,31.465 -26.62,31.465 -19.8,0 -28.16,-18.047 -29.71,-31.465 l 56.33,0 z m -56.55,-13.867 c 0.44,-25.965 16.94,-36.746 36.31,-36.746 13.86,0 22.44,2.422 29.48,5.508 l 3.53,-13.867 c -6.83,-3.078 -18.71,-6.817 -35.65,-6.817 -32.57,0 -52.37,21.778 -52.37,53.68 0,32.129 19.14,57.434 50.16,57.434 34.77,0 43.79,-30.586 43.79,-50.168 0,-3.965 -0.21,-6.825 -0.66,-9.024 l -74.59,0" />
            <path
               inkscape:connector-curvature="0"
               id="path4336"
               style="fill:#ffffff;fill-opacity:1;fill-rule:nonzero;stroke:none"
               d="m 3294.19,265.742 c 0,-11.222 0.22,-20.91 0.88,-29.269 l -17.16,0 -1.1,17.382 -0.44,0 c -4.84,-8.582 -16.28,-19.804 -35.2,-19.804 -16.72,0 -36.75,9.465 -36.75,46.652 l 0,62.266 19.36,0 0,-58.75 c 0,-20.246 6.38,-34.102 23.76,-34.102 12.99,0 22.01,9.024 25.53,17.821 1.1,2.636 1.76,6.164 1.76,9.902 l 0,65.129 19.36,0 0,-77.227" />
          </g>
        </g>
      </g>
    </g>
  </g>
</svg>
