<?xml version="1.0" encoding="UTF-8" standalone="no"?>
<svg
   xmlns:dc="http://purl.org/dc/elements/1.1/"
   xmlns:cc="http://creativecommons.org/ns#"
   xmlns:rdf="http://www.w3.org/1999/02/22-rdf-syntax-ns#"
   xmlns:svg="http://www.w3.org/2000/svg"
   xmlns="http://www.w3.org/2000/svg"
   xmlns:sodipodi="http://sodipodi.sourceforge.net/DTD/sodipodi-0.dtd"
   xmlns:inkscape="http://www.inkscape.org/namespaces/inkscape"
   version="1.1"
   x="0px"
   y="0px"
   viewBox="0 0 76.74295 77.441002"
   enable-background="new 0 0 100 100"
   xml:space="preserve"
   id="svg2"
   inkscape:version="0.91 r13725"
   sodipodi:docname="pattern.svg"
   width="76.74295"
   height="77.441002"><metadata
     id="metadata120"><rdf:RDF><cc:Work
         rdf:about=""><dc:format>image/svg+xml</dc:format><dc:type
           rdf:resource="http://purl.org/dc/dcmitype/StillImage" /><dc:title></dc:title></cc:Work></rdf:RDF></metadata><defs
     id="defs118" /><sodipodi:namedview
     pagecolor="#6c3ad2"
     bordercolor="#666666"
     borderopacity="1"
     objecttolerance="10"
     gridtolerance="10"
     guidetolerance="10"
     inkscape:pageopacity="0.40784314"
     inkscape:pageshadow="2"
     inkscape:window-width="1920"
     inkscape:window-height="1056"
     id="namedview116"
     showgrid="false"
     fit-margin-top="0"
     fit-margin-left="0"
     fit-margin-right="0"
     fit-margin-bottom="0"
     borderlayer="false"
     inkscape:zoom="3.776"
     inkscape:cx="33.885177"
     inkscape:cy="32.072734"
     inkscape:window-x="0"
     inkscape:window-y="24"
     inkscape:window-maximized="1"
     inkscape:current-layer="svg2" /><g
     id="g4"
     transform="translate(-11.628048,-11.28)"
     style="fill:#ffffff;fill-opacity:0.07119741"><g
       id="g6"
       style="fill:#ffffff;fill-opacity:0.07119741"><path
         d="m 25.78,86.297 c -1.772,0 -3.214,-1.442 -3.214,-3.215 0,-1.771 1.442,-3.213 3.214,-3.213 1.772,0 3.214,1.441 3.214,3.213 0.001,1.772 -1.441,3.215 -3.214,3.215 z m 0,-4.729 c -0.835,0 -1.514,0.68 -1.514,1.514 0,0.836 0.679,1.516 1.514,1.516 0.835,0 1.514,-0.68 1.514,-1.516 0,-0.834 -0.679,-1.514 -1.514,-1.514 z"
         id="path8"
         inkscape:connector-curvature="0"
         style="fill:#ffffff;fill-opacity:0.07119741" /></g><g
       id="g10"
       style="fill:#ffffff;fill-opacity:0.07119741"><path
         d="m 45.782,66.295 c -1.771,0 -3.213,-1.442 -3.213,-3.215 0,-1.771 1.441,-3.213 3.213,-3.213 1.772,0 3.215,1.441 3.215,3.213 0,1.773 -1.443,3.215 -3.215,3.215 z m 0,-4.729 c -0.834,0 -1.514,0.68 -1.514,1.514 0,0.836 0.68,1.516 1.514,1.516 0.836,0 1.516,-0.68 1.516,-1.516 -0.001,-0.834 -0.68,-1.514 -1.516,-1.514 z"
         id="path12"
         inkscape:connector-curvature="0"
         style="fill:#ffffff;fill-opacity:0.07119741" /></g><g
       id="g14"
       style="fill:#ffffff;fill-opacity:0.07119741"><path
         d="m 37.242,39.71 c -1.772,0 -3.214,-1.442 -3.214,-3.215 0,-1.772 1.442,-3.213 3.214,-3.213 1.772,0 3.214,1.441 3.214,3.213 0,1.773 -1.442,3.215 -3.214,3.215 z m 0,-4.729 c -0.835,0 -1.515,0.679 -1.515,1.513 0,0.835 0.68,1.515 1.515,1.515 0.835,0 1.515,-0.68 1.515,-1.515 -10e-4,-0.834 -0.68,-1.513 -1.515,-1.513 z"
         id="path16"
         inkscape:connector-curvature="0"
         style="fill:#ffffff;fill-opacity:0.07119741" /></g><g
       id="g18"
       style="fill:#ffffff;fill-opacity:0.07119741"><path
         d="m 51.359,30.709 c -1.772,0 -3.213,-1.442 -3.213,-3.215 0,-1.772 1.441,-3.213 3.213,-3.213 1.772,0 3.214,1.441 3.214,3.213 0,1.773 -1.441,3.215 -3.214,3.215 z m 0,-4.729 c -0.834,0 -1.514,0.679 -1.514,1.513 0,0.835 0.68,1.515 1.514,1.515 0.835,0 1.515,-0.68 1.515,-1.515 0,-0.834 -0.68,-1.513 -1.515,-1.513 z"
         id="path20"
         inkscape:connector-curvature="0"
         style="fill:#ffffff;fill-opacity:0.07119741" /></g><g
       id="g22"
       style="fill:#ffffff;fill-opacity:0.07119741"><path
         d="m 81.157,17.708 c -1.772,0 -3.214,-1.442 -3.214,-3.215 0,-1.772 1.441,-3.213 3.214,-3.213 1.773,0 3.214,1.441 3.214,3.213 0,1.773 -1.441,3.215 -3.214,3.215 z m 0,-4.729 c -0.835,0 -1.515,0.679 -1.515,1.513 0,0.835 0.68,1.515 1.515,1.515 0.835,0 1.515,-0.68 1.515,-1.515 0,-0.834 -0.68,-1.513 -1.515,-1.513 z"
         id="path24"
         inkscape:connector-curvature="0"
         style="fill:#ffffff;fill-opacity:0.07119741" /></g><g
       id="g26"
       style="fill:#ffffff;fill-opacity:0.07119741"><path
         d="m 61.155,84.719 c -1.772,0 -3.214,-1.442 -3.214,-3.215 0,-1.771 1.441,-3.213 3.214,-3.213 1.773,0 3.214,1.441 3.214,3.213 0,1.772 -1.441,3.215 -3.214,3.215 z m 0,-4.729 c -0.835,0 -1.515,0.68 -1.515,1.514 0,0.836 0.68,1.516 1.515,1.516 0.835,0 1.515,-0.68 1.515,-1.516 0,-0.834 -0.68,-1.514 -1.515,-1.514 z"
         id="path28"
         inkscape:connector-curvature="0"
         style="fill:#ffffff;fill-opacity:0.07119741" /></g><g
       id="g30"
       style="fill:#ffffff;fill-opacity:0.07119741"><path
         d="m 85.157,42.302 c -1.772,0 -3.214,-1.442 -3.214,-3.215 0,-1.772 1.441,-3.213 3.214,-3.213 1.773,0 3.214,1.441 3.214,3.213 0,1.772 -1.441,3.215 -3.214,3.215 z m 0,-4.729 c -0.835,0 -1.515,0.679 -1.515,1.513 0,0.835 0.68,1.515 1.515,1.515 0.835,0 1.515,-0.68 1.515,-1.515 0,-0.834 -0.68,-1.513 -1.515,-1.513 z"
         id="path32"
         inkscape:connector-curvature="0"
         style="fill:#ffffff;fill-opacity:0.07119741" /></g><g
       id="g34"
       style="fill:#ffffff;fill-opacity:0.07119741"><path
         d="m 15.151,29.301 c -1.772,0 -3.214,-1.442 -3.214,-3.215 0,-1.772 1.442,-3.213 3.214,-3.213 1.772,0 3.214,1.441 3.214,3.213 0,1.772 -1.442,3.215 -3.214,3.215 z m 0,-4.729 c -0.835,0 -1.514,0.679 -1.514,1.513 0,0.835 0.679,1.515 1.514,1.515 0.835,0 1.514,-0.68 1.514,-1.515 0,-0.834 -0.679,-1.513 -1.514,-1.513 z"
         id="path36"
         inkscape:connector-curvature="0"
         style="fill:#ffffff;fill-opacity:0.07119741" /></g><g
       id="g38"
       style="fill:#ffffff;fill-opacity:0.07119741"><g
         id="g40"
         style="fill:#ffffff;fill-opacity:0.07119741"><path
           d="m 29.84,51.337 c -0.507,0 -1.007,-0.177 -1.402,-0.511 -0.584,-0.497 -0.863,-1.275 -0.729,-2.033 0.031,-0.168 -0.027,-0.33 -0.154,-0.438 -0.148,-0.126 -0.334,-0.126 -0.457,-0.083 -0.724,0.255 -1.538,0.106 -2.121,-0.389 -0.584,-0.498 -0.862,-1.276 -0.728,-2.033 0.083,-0.462 0.525,-0.767 0.986,-0.688 0.462,0.083 0.77,0.524 0.688,0.986 -0.03,0.167 0.028,0.332 0.155,0.439 0.147,0.125 0.333,0.124 0.457,0.08 0.724,-0.254 1.537,-0.104 2.121,0.391 0.587,0.499 0.866,1.279 0.726,2.035 -0.022,0.123 0.007,0.307 0.157,0.434 0.148,0.126 0.334,0.125 0.458,0.081 0.446,-0.156 0.929,0.078 1.083,0.521 0.155,0.443 -0.078,0.928 -0.521,1.083 -0.235,0.085 -0.478,0.125 -0.719,0.125 z"
           id="path42"
           inkscape:connector-curvature="0"
           style="fill:#ffffff;fill-opacity:0.07119741" /></g><g
         id="g44"
         style="fill:#ffffff;fill-opacity:0.07119741"><path
           d="m 12.984,78.673 c -0.416,0 -0.779,-0.306 -0.84,-0.729 -0.067,-0.464 0.255,-0.896 0.72,-0.962 0.129,-0.019 0.292,-0.104 0.366,-0.285 0.072,-0.18 0.012,-0.356 -0.069,-0.461 -0.469,-0.609 -0.582,-1.428 -0.295,-2.135 0.287,-0.714 0.939,-1.225 1.701,-1.331 0.125,-0.018 0.288,-0.103 0.362,-0.285 0.073,-0.181 0.013,-0.356 -0.067,-0.46 -0.288,-0.371 -0.22,-0.905 0.151,-1.192 0.37,-0.289 0.904,-0.221 1.192,0.151 0.472,0.609 0.587,1.429 0.299,2.139 -0.287,0.71 -0.938,1.221 -1.698,1.33 -0.167,0.023 -0.302,0.13 -0.364,0.284 -0.073,0.183 -0.014,0.357 0.067,0.462 0.469,0.609 0.583,1.428 0.297,2.136 -0.288,0.711 -0.939,1.22 -1.699,1.329 -0.042,0.006 -0.082,0.009 -0.123,0.009 z"
           id="path46"
           inkscape:connector-curvature="0"
           style="fill:#ffffff;fill-opacity:0.07119741" /></g><g
         id="g48"
         style="fill:#ffffff;fill-opacity:0.07119741"><path
           d="m 71.401,53.93 c -0.169,0 -0.339,-0.021 -0.506,-0.062 -0.74,-0.177 -1.342,-0.745 -1.564,-1.481 -0.048,-0.162 -0.175,-0.282 -0.333,-0.32 -0.193,-0.047 -0.355,0.039 -0.447,0.133 -0.532,0.555 -1.326,0.792 -2.068,0.609 -0.744,-0.182 -1.343,-0.75 -1.565,-1.484 -0.136,-0.449 0.117,-0.924 0.566,-1.06 0.455,-0.137 0.925,0.118 1.061,0.567 0.038,0.127 0.147,0.278 0.339,0.325 0.153,0.037 0.322,-0.012 0.442,-0.136 0.533,-0.554 1.324,-0.786 2.068,-0.607 0.749,0.178 1.35,0.749 1.566,1.489 0.036,0.117 0.145,0.268 0.336,0.314 0.188,0.045 0.354,-0.038 0.445,-0.133 0.323,-0.34 0.862,-0.351 1.201,-0.025 0.339,0.324 0.351,0.862 0.025,1.201 -0.413,0.432 -0.984,0.67 -1.566,0.67 z"
           id="path50"
           inkscape:connector-curvature="0"
           style="fill:#ffffff;fill-opacity:0.07119741" /></g><g
         id="g52"
         style="fill:#ffffff;fill-opacity:0.07119741"><path
           d="m 73.772,82.845 c -0.382,0 -0.729,-0.26 -0.824,-0.647 -0.112,-0.456 0.167,-0.917 0.622,-1.028 0.166,-0.041 0.293,-0.16 0.34,-0.318 0.047,-0.157 0.005,-0.326 -0.111,-0.451 -0.526,-0.564 -0.717,-1.369 -0.496,-2.1 0.214,-0.735 0.814,-1.308 1.566,-1.484 0.118,-0.029 0.276,-0.131 0.331,-0.318 0.048,-0.16 0.007,-0.328 -0.11,-0.453 -0.321,-0.342 -0.304,-0.88 0.039,-1.201 0.342,-0.319 0.881,-0.305 1.201,0.039 0.527,0.562 0.719,1.366 0.5,2.1 -0.216,0.729 -0.813,1.3 -1.56,1.485 -0.168,0.04 -0.293,0.159 -0.338,0.315 -0.058,0.191 0.019,0.36 0.108,0.457 0.524,0.559 0.716,1.362 0.499,2.096 -0.219,0.733 -0.818,1.302 -1.563,1.484 -0.068,0.015 -0.136,0.024 -0.204,0.024 z"
           id="path54"
           inkscape:connector-curvature="0"
           style="fill:#ffffff;fill-opacity:0.07119741" /></g><g
         id="g56"
         style="fill:#ffffff;fill-opacity:0.07119741"><path
           d="m 43.119,88.457 c -0.416,0 -0.779,-0.306 -0.841,-0.729 -0.109,-0.764 0.197,-1.533 0.801,-2.007 0.594,-0.473 1.413,-0.595 2.128,-0.317 0.127,0.051 0.306,0.059 0.456,-0.062 0.16,-0.126 0.194,-0.305 0.176,-0.433 -0.106,-0.766 0.199,-1.533 0.799,-2.006 0.599,-0.474 1.415,-0.596 2.132,-0.313 0.438,0.171 0.652,0.665 0.48,1.102 -0.171,0.438 -0.669,0.651 -1.102,0.48 -0.122,-0.048 -0.305,-0.055 -0.458,0.065 -0.129,0.103 -0.191,0.265 -0.168,0.435 0.108,0.762 -0.199,1.529 -0.804,2.002 -0.595,0.478 -1.417,0.601 -2.134,0.312 -0.113,-0.044 -0.302,-0.05 -0.452,0.069 -0.156,0.122 -0.189,0.302 -0.171,0.431 0.066,0.465 -0.256,0.896 -0.721,0.962 -0.04,0.006 -0.081,0.009 -0.121,0.009 z"
           id="path58"
           inkscape:connector-curvature="0"
           style="fill:#ffffff;fill-opacity:0.07119741" /></g><g
         id="g60"
         style="fill:#ffffff;fill-opacity:0.07119741"><path
           d="m 75.407,30.991 c -0.271,0 -0.541,-0.05 -0.799,-0.152 -0.437,-0.173 -0.649,-0.667 -0.477,-1.104 0.174,-0.437 0.669,-0.651 1.104,-0.476 0.156,0.062 0.327,0.038 0.459,-0.064 0.152,-0.119 0.188,-0.299 0.169,-0.428 -0.104,-0.769 0.207,-1.535 0.811,-2.004 0.599,-0.476 1.418,-0.596 2.136,-0.306 0.115,0.044 0.302,0.054 0.454,-0.066 0.154,-0.121 0.189,-0.301 0.171,-0.429 -0.065,-0.465 0.258,-0.895 0.722,-0.961 0.472,-0.069 0.896,0.256 0.962,0.722 0.108,0.764 -0.2,1.533 -0.806,2.006 -0.598,0.47 -1.417,0.588 -2.131,0.309 -0.161,-0.064 -0.331,-0.038 -0.457,0.063 -0.159,0.124 -0.195,0.305 -0.177,0.435 0.105,0.758 -0.202,1.525 -0.805,1.998 -0.386,0.299 -0.858,0.457 -1.336,0.457 z"
           id="path62"
           inkscape:connector-curvature="0"
           style="fill:#ffffff;fill-opacity:0.07119741" /></g><g
         id="g64"
         style="fill:#ffffff;fill-opacity:0.07119741"><path
           d="m 12.541,19.054 c -0.034,0 -0.068,-10e-4 -0.103,-0.002 -0.469,-0.022 -0.831,-0.421 -0.809,-0.89 0.023,-0.468 0.43,-0.82 0.89,-0.809 0.166,0.01 0.322,-0.071 0.413,-0.211 0.104,-0.162 0.079,-0.342 0.021,-0.457 -0.349,-0.695 -0.304,-1.521 0.114,-2.16 0.412,-0.646 1.141,-1.033 1.921,-0.983 0.132,-0.003 0.301,-0.048 0.407,-0.211 0.106,-0.164 0.081,-0.346 0.022,-0.461 -0.214,-0.418 -0.048,-0.93 0.37,-1.144 0.418,-0.212 0.931,-0.048 1.144,0.37 0.351,0.687 0.309,1.514 -0.108,2.158 -0.414,0.64 -1.147,1.026 -1.915,0.986 -0.172,-0.009 -0.325,0.071 -0.413,0.208 -0.11,0.169 -0.084,0.353 -0.025,0.471 0.347,0.679 0.306,1.505 -0.11,2.149 -0.401,0.615 -1.09,0.986 -1.819,0.986 z"
           id="path66"
           inkscape:connector-curvature="0"
           style="fill:#ffffff;fill-opacity:0.07119741" /></g><g
         id="g68"
         style="fill:#ffffff;fill-opacity:0.07119741"><path
           d="m 55.755,18.617 c -0.071,0 -0.143,-0.009 -0.215,-0.027 -0.454,-0.118 -0.727,-0.582 -0.608,-1.036 0.032,-0.127 0.019,-0.312 -0.121,-0.45 -0.114,-0.115 -0.282,-0.159 -0.45,-0.116 -0.742,0.198 -1.542,-0.017 -2.082,-0.558 -0.546,-0.537 -0.765,-1.336 -0.565,-2.083 0.031,-0.12 0.017,-0.306 -0.123,-0.445 -0.139,-0.138 -0.323,-0.149 -0.447,-0.117 -0.456,0.123 -0.919,-0.146 -1.042,-0.601 -0.121,-0.453 0.147,-0.919 0.601,-1.041 0.746,-0.2 1.544,0.012 2.088,0.554 0.541,0.539 0.759,1.336 0.567,2.081 -0.035,0.13 -0.021,0.309 0.117,0.445 0.143,0.141 0.324,0.154 0.451,0.121 0.747,-0.196 1.544,0.017 2.085,0.555 0.542,0.541 0.759,1.338 0.565,2.082 -0.098,0.382 -0.443,0.636 -0.821,0.636 z"
           id="path70"
           inkscape:connector-curvature="0"
           style="fill:#ffffff;fill-opacity:0.07119741" /></g><g
         id="g72"
         style="fill:#ffffff;fill-opacity:0.07119741"><circle
           cx="19.367001"
           cy="40.433998"
           r="1.5140001"
           id="circle74"
           style="fill:#ffffff;fill-opacity:0.07119741" /></g><g
         id="g76"
         style="fill:#ffffff;fill-opacity:0.07119741"><circle
           cx="42.879002"
           cy="48.269001"
           r="1.5140001"
           id="circle78"
           style="fill:#ffffff;fill-opacity:0.07119741" /></g><g
         id="g80"
         style="fill:#ffffff;fill-opacity:0.07119741"><circle
           cx="70.556"
           cy="38.011002"
           r="1.5140001"
           id="circle82"
           style="fill:#ffffff;fill-opacity:0.07119741" /></g><g
         id="g84"
         style="fill:#ffffff;fill-opacity:0.07119741"><circle
           cx="65.730003"
           cy="67.205002"
           r="1.5140001"
           id="circle86"
           style="fill:#ffffff;fill-opacity:0.07119741" /></g><g
         id="g88"
         style="fill:#ffffff;fill-opacity:0.07119741"><circle
           cx="35.728001"
           cy="77.205002"
           r="1.5140001"
           id="circle90"
           style="fill:#ffffff;fill-opacity:0.07119741" /></g><g
         id="g92"
         style="fill:#ffffff;fill-opacity:0.07119741"><circle
           cx="85.732002"
           cy="87.207001"
           r="1.5140001"
           id="circle94"
           style="fill:#ffffff;fill-opacity:0.07119741" /></g><g
         id="g96"
         style="fill:#ffffff;fill-opacity:0.07119741"><circle
           cx="85.732002"
           cy="57.202999"
           r="1.5140001"
           id="circle98"
           style="fill:#ffffff;fill-opacity:0.07119741" /></g><g
         id="g100"
         style="fill:#ffffff;fill-opacity:0.07119741"><circle
           cx="22.726999"
           cy="62.202999"
           r="1.5140001"
           id="circle102"
           style="fill:#ffffff;fill-opacity:0.07119741" /></g><g
         id="g104"
         style="fill:#ffffff;fill-opacity:0.07119741"><circle
           cx="34.728001"
           cy="22.200001"
           r="1.5140001"
           id="circle106"
           style="fill:#ffffff;fill-opacity:0.07119741" /></g><g
         id="g108"
         style="fill:#ffffff;fill-opacity:0.07119741"><circle
           cx="64.730003"
           cy="22.200001"
           r="1.5140001"
           id="circle110"
           style="fill:#ffffff;fill-opacity:0.07119741" /></g></g></g></svg>